<svg id="Layer_4" data-name="Layer 4" xmlns="http://www.w3.org/2000/svg" viewBox="0 0 175.93 178.7"><defs><style>.cls-1{fill:#fff;}</style></defs><title>logo</title><path class="cls-1" d="M91.12,79.11s29-15.61,41.05,8.41l14.88-35.87s-21.91-26.56-45.76-.32C90.12,66.12,91.12,79.11,91.12,79.11Z" transform="translate(-33.33 -28.22)"/><polygon class="cls-1" points="113.72 23.42 150.59 0 136.82 38.16 98.84 59.3 113.72 23.42"/><path class="cls-1" d="M137,175.38c-49.84-2.21-88.39-45.75-86.11-97.24A96.24,96.24,0,0,1,55.6,52.46,94.86,94.86,0,0,0,33.43,109.6c-2.29,51.49,36.26,95,86.11,97.24,41.16,1.83,77.15-25.1,89.73-63.53C191.77,164,165.66,176.66,137,175.38Z" transform="translate(-33.33 -28.22)"/></svg>