<?xml version="1.0" encoding="UTF-8"?>
<svg id="Layer_1" data-name="Layer 1" xmlns="http://www.w3.org/2000/svg" width="10in" height="4.7in" version="1.1" viewBox="0 0 722 340.1">
  <defs>
    <style>
      .cls-1 {
        fill: #fff;
        stroke-width: 0px;
      }
    </style>
  </defs>
  <path class="cls-1" d="M0,1.5h67.6v290.9c.1,7.9,2.6,12.5,11.7,12.5s11-4.6,11-12.5l-.2-291h68.2v274.3c.1,50.6-5.3,64.3-77.3,64.4C5.6,340.1.1,328.5.1,275.8"/>
  <path class="cls-1" d="M250.5,1.3l27.7,154h4.9L311.3,1.4h74.9v337c.1,0-59.4,0-59.4,0l5.4-203.4h-6.8l-28.8,203.3h-31.9l-29-203.4h-6.8l6.2,203.4h-59.6V1.3c-.1,0,74.8,0,74.8,0Z"/>
  <path class="cls-1" d="M562.4,116.2h-67.7V47.7c0-7.9-3-12-11.6-12s-11,4.2-11,12v69.3c0,10.4.6,12.9,17.1,19.9l41.4,17c28,11.6,31.7,25.7,31.7,46.1v75.6c0,52.7-6.1,64.3-81,64.4-71.9,0-76.8-14.1-76.8-64.3v-79.7h67.6v96.3c0,7.9,1.8,12.5,11,12.5,8.5,0,11.5-4.6,11.5-12.5v-89.2c0-10.4-.6-12.5-17-19.5l-42.1-17.4c-28.6-12-31.1-25.7-31.1-45.6v-56C404.6,12.5,410.1,0,483.2,0,556.3,0,562.4,12.5,562.4,64.3v51.8Z"/>
  <polyline class="cls-1" points="722 338.2 581.4 338.2 581.2 1.2 648.9 1.2 649 293.3 722 293.3"/>
</svg>