<?xml version="1.0" encoding="UTF-8"?><svg id="Layer_1" xmlns="http://www.w3.org/2000/svg" viewBox="0 0 182.55 35.32"><defs><style>.cls-1{fill:#fff;}</style></defs><path class="cls-1" d="M8.5,.12V6.02c0,.98-.34,1.76-1.02,2.33-.68,.57-1.61,.85-2.79,.85s-2.08-.28-2.77-.83-1.03-1.31-1.05-2.28V.12H2.92V6.04c0,.59,.16,1.01,.47,1.28,.31,.27,.74,.4,1.29,.4,1.15,0,1.74-.55,1.76-1.64V.12h2.06Z"/><path class="cls-1" d="M25.09,9.08h-2.05l-3.99-5.89v5.89h-2.05V.12h2.05l4,5.91V.12h2.04V9.08Z"/><path class="cls-1" d="M35.88,9.08h-2.05V.12h2.05V9.08Z"/><path class="cls-1" d="M48.28,6.86L50.53,.12h2.28l-3.47,8.96h-2.14L43.76,.12h2.28l2.24,6.74Z"/><path class="cls-1" d="M66.56,5.2h-3.94v2.4h4.62v1.48h-6.67V.12h6.66V1.62h-4.61V3.75h3.94v1.45Z"/><path class="cls-1" d="M78.95,5.8h-1.63v3.28h-2.05V.12h3.7c1.18,0,2.08,.24,2.72,.71,.64,.47,.96,1.14,.96,2,0,.61-.15,1.12-.44,1.53-.29,.41-.74,.73-1.34,.98l2.15,3.66v.09h-2.2l-1.87-3.28Zm-1.63-1.5h1.65c.52,0,.91-.12,1.2-.35,.28-.24,.42-.56,.42-.98s-.13-.75-.4-1c-.27-.24-.68-.36-1.23-.36h-1.65v2.69Z"/><path class="cls-1" d="M96.18,6.73c0-.35-.14-.62-.41-.8-.27-.19-.77-.38-1.48-.59s-1.27-.41-1.69-.61c-1.13-.55-1.7-1.29-1.7-2.22,0-.48,.15-.92,.46-1.3,.3-.38,.74-.68,1.31-.89,.57-.21,1.2-.32,1.91-.32s1.34,.12,1.9,.35c.56,.23,.99,.56,1.3,.98s.46,.9,.46,1.44h-2.05c0-.41-.14-.73-.43-.96s-.69-.34-1.21-.34-.89,.1-1.17,.29c-.28,.19-.42,.44-.42,.75,0,.29,.16,.54,.49,.73,.33,.2,.81,.38,1.44,.55,1.17,.32,2.02,.71,2.55,1.17,.53,.47,.8,1.05,.8,1.75,0,.77-.33,1.38-.98,1.82-.65,.44-1.53,.66-2.63,.66-.77,0-1.46-.13-2.09-.38s-1.11-.6-1.44-1.04c-.33-.44-.5-.95-.5-1.53h2.06c0,.99,.66,1.48,1.97,1.48,.49,0,.87-.09,1.14-.27,.27-.18,.41-.43,.41-.75Z"/><path class="cls-1" d="M108.62,9.08h-2.05V.12h2.05V9.08Z"/><path class="cls-1" d="M124.63,1.62h-3.05v7.46h-2.05V1.62h-3.01V.12h8.11V1.62Z"/><path class="cls-1" d="M136.16,4.16L138.23,.12h2.24l-3.27,5.71v3.25h-2.08v-3.25L131.86,.12h2.25l2.06,4.04Z"/><path class="cls-1" d="M166.68,4.81c0,.88-.17,1.65-.52,2.32s-.84,1.18-1.49,1.54c-.65,.36-1.38,.54-2.22,.54s-1.56-.18-2.21-.54c-.65-.36-1.15-.87-1.5-1.53-.36-.66-.54-1.42-.54-2.29v-.44c0-.88,.18-1.66,.53-2.33,.35-.67,.85-1.19,1.5-1.54,.64-.36,1.38-.54,2.21-.54s1.57,.18,2.21,.54c.65,.36,1.14,.87,1.5,1.54,.35,.67,.53,1.44,.53,2.32v.4Zm-2.08-.41c0-.94-.19-1.65-.56-2.14-.37-.49-.91-.73-1.6-.73s-1.22,.24-1.59,.72-.56,1.19-.57,2.12v.44c0,.91,.19,1.62,.56,2.13,.37,.5,.91,.76,1.61,.76s1.22-.24,1.59-.73c.37-.49,.56-1.19,.56-2.13v-.44Z"/><path class="cls-1" d="M180.98,5.42h-3.94v3.66h-2.05V.12h6.48V1.62h-4.43V3.93h3.94v1.49Z"/><path class="cls-1" d="M0,35.08L.31,17.26h3.85l2.2,11.24,2.35-11.24h3.72l.31,17.82h-2.64l-.29-12.08-2.27,12.08h-2.27l-2.38-12.17-.24,12.17H0Z"/><path class="cls-1" d="M15.4,35.08V17.26h3.61v17.82h-3.61Z"/><path class="cls-1" d="M26.36,35.32c-1.1,0-2.02-.2-2.75-.61s-1.29-1.01-1.66-1.83c-.37-.81-.59-1.85-.65-3.11l3.12-.53c.03,.73,.11,1.35,.23,1.84,.12,.49,.32,.86,.57,1.1,.26,.24,.58,.36,.96,.36,.47,0,.79-.15,.96-.44,.17-.29,.25-.63,.25-1.01,0-.75-.18-1.38-.54-1.88s-.83-1.02-1.42-1.53l-1.85-1.61c-.66-.56-1.2-1.19-1.62-1.89s-.63-1.57-.63-2.6c0-1.47,.43-2.59,1.29-3.38,.86-.78,2.04-1.18,3.53-1.18,.89,0,1.63,.15,2.2,.44,.57,.29,1.02,.69,1.33,1.18s.54,1.03,.66,1.61c.12,.58,.2,1.16,.23,1.73l-3.1,.46c-.03-.54-.08-1.02-.14-1.43-.07-.41-.2-.73-.4-.97-.2-.23-.5-.35-.89-.35-.43,0-.74,.16-.95,.47s-.31,.66-.31,1.04c0,.63,.14,1.15,.43,1.55s.68,.82,1.18,1.26l1.8,1.58c.75,.65,1.39,1.38,1.92,2.21,.54,.83,.8,1.85,.8,3.07,0,.84-.19,1.59-.57,2.27-.38,.67-.91,1.2-1.59,1.58-.68,.38-1.48,.57-2.41,.57Z"/><path class="cls-1" d="M37.18,35.32c-1.1,0-2.02-.2-2.75-.61s-1.29-1.01-1.66-1.83c-.37-.81-.59-1.85-.65-3.11l3.12-.53c.03,.73,.11,1.35,.23,1.84,.12,.49,.32,.86,.57,1.1,.26,.24,.58,.36,.96,.36,.47,0,.79-.15,.96-.44,.17-.29,.25-.63,.25-1.01,0-.75-.18-1.38-.54-1.88s-.83-1.02-1.42-1.53l-1.85-1.61c-.66-.56-1.2-1.19-1.62-1.89s-.63-1.57-.63-2.6c0-1.47,.43-2.59,1.29-3.38,.86-.78,2.04-1.18,3.53-1.18,.89,0,1.63,.15,2.2,.44,.57,.29,1.02,.69,1.33,1.18s.54,1.03,.66,1.61c.12,.58,.2,1.16,.23,1.73l-3.1,.46c-.03-.54-.08-1.02-.14-1.43-.07-.41-.2-.73-.4-.97-.2-.23-.5-.35-.89-.35-.43,0-.74,.16-.95,.47s-.31,.66-.31,1.04c0,.63,.14,1.15,.43,1.55s.68,.82,1.18,1.26l1.8,1.58c.75,.65,1.39,1.38,1.92,2.21,.54,.83,.8,1.85,.8,3.07,0,.84-.19,1.59-.57,2.27-.38,.67-.91,1.2-1.59,1.58-.68,.38-1.48,.57-2.41,.57Z"/><path class="cls-1" d="M48.64,35.32c-1.31,0-2.34-.24-3.1-.7-.76-.47-1.31-1.14-1.64-2.01-.33-.87-.5-1.92-.5-3.14v-6.64c0-1.22,.17-2.26,.5-3.12,.33-.87,.88-1.53,1.64-1.98,.76-.45,1.8-.68,3.1-.68s2.37,.23,3.14,.69c.77,.46,1.32,1.12,1.65,1.98,.33,.86,.5,1.9,.5,3.11v6.64c0,1.22-.17,2.26-.5,3.14-.33,.87-.88,1.54-1.65,2.01-.77,.47-1.82,.7-3.14,.7Zm0-2.62c.47,0,.81-.11,1.03-.32,.22-.21,.37-.5,.44-.86,.07-.36,.11-.74,.11-1.16v-8.43c0-.41-.04-.79-.11-1.14-.07-.35-.22-.63-.44-.85s-.56-.32-1.03-.32c-.44,0-.77,.11-.99,.32-.22,.21-.37,.5-.44,.85-.07,.35-.11,.73-.11,1.14v8.43c0,.41,.03,.8,.1,1.16,.07,.36,.21,.65,.43,.86,.22,.21,.56,.32,1.01,.32Z"/><path class="cls-1" d="M61.36,35.32c-1.35,0-2.4-.23-3.15-.69s-1.27-1.13-1.57-2c-.3-.87-.45-1.93-.45-3.18v-12.19h3.59v12.69c0,.44,.03,.87,.1,1.3,.07,.43,.21,.77,.44,1.03s.58,.4,1.04,.4,.84-.13,1.07-.4,.37-.61,.43-1.03c.06-.42,.09-.86,.09-1.3v-12.69h3.59v12.19c0,1.25-.15,2.31-.45,3.18-.3,.87-.83,1.54-1.57,2s-1.8,.69-3.15,.69Z"/><path class="cls-1" d="M69.06,35.08V17.26h4.62c1.2,0,2.23,.14,3.09,.41s1.52,.75,1.98,1.44c.46,.69,.69,1.64,.69,2.86,0,.73-.06,1.38-.19,1.95-.12,.56-.34,1.06-.66,1.47s-.76,.75-1.33,1l2.46,8.69h-3.72l-2.05-8.07h-1.28v8.07h-3.63Zm3.63-10.23h1.06c.59,0,1.05-.09,1.39-.29,.34-.19,.58-.48,.71-.87,.14-.39,.21-.87,.21-1.44,0-.82-.15-1.45-.45-1.88s-.86-.65-1.68-.65h-1.23v5.13Z"/><path class="cls-1" d="M81.93,35.08V17.26h3.61v17.82h-3.61Z"/><path class="cls-1" d="M88.11,28.75v-2.31h10.78v2.31h-10.78Z"/><path class="cls-1" d="M105.6,35.32c-1.1,0-2.02-.2-2.75-.61s-1.29-1.01-1.66-1.83c-.37-.81-.59-1.85-.65-3.11l3.12-.53c.03,.73,.11,1.35,.23,1.84,.12,.49,.32,.86,.57,1.1,.26,.24,.58,.36,.96,.36,.47,0,.79-.15,.96-.44,.17-.29,.25-.63,.25-1.01,0-.75-.18-1.38-.54-1.88s-.83-1.02-1.42-1.53l-1.85-1.61c-.66-.56-1.2-1.19-1.62-1.89-.42-.7-.63-1.57-.63-2.6,0-1.47,.43-2.59,1.29-3.38,.86-.78,2.04-1.18,3.53-1.18,.89,0,1.63,.15,2.2,.44,.57,.29,1.02,.69,1.33,1.18s.54,1.03,.66,1.61c.12,.58,.2,1.16,.23,1.73l-3.1,.46c-.03-.54-.08-1.02-.14-1.43-.07-.41-.2-.73-.4-.97-.2-.23-.5-.35-.89-.35-.42,0-.74,.16-.95,.47-.21,.32-.31,.66-.31,1.04,0,.63,.14,1.15,.43,1.55,.29,.4,.68,.82,1.18,1.26l1.8,1.58c.75,.65,1.39,1.38,1.92,2.21,.54,.83,.8,1.85,.8,3.07,0,.84-.19,1.59-.57,2.27-.38,.67-.91,1.2-1.59,1.58-.68,.38-1.49,.57-2.41,.57Z"/><path class="cls-1" d="M113.76,35.08v-15.11h-2.75v-2.71h9.11v2.71h-2.71v15.11h-3.65Z"/><path class="cls-1" d="M121.42,35.08v-3.23h3.17v3.23h-3.17Z"/><path class="cls-1" d="M132.33,35.08V17.26h3.63v15.36h4.18v2.46h-7.81Z"/><path class="cls-1" d="M146.56,35.32c-1.31,0-2.34-.24-3.1-.7-.76-.47-1.31-1.14-1.64-2.01-.33-.87-.5-1.92-.5-3.14v-6.64c0-1.22,.17-2.26,.5-3.12s.88-1.53,1.64-1.98c.76-.45,1.8-.68,3.1-.68s2.37,.23,3.13,.69c.77,.46,1.32,1.12,1.65,1.98,.33,.86,.5,1.9,.5,3.11v6.64c0,1.22-.17,2.26-.5,3.14-.33,.87-.88,1.54-1.65,2.01-.77,.47-1.82,.7-3.13,.7Zm0-2.62c.47,0,.81-.11,1.03-.32,.22-.21,.37-.5,.44-.86s.11-.74,.11-1.16v-8.43c0-.41-.04-.79-.11-1.14-.07-.35-.22-.63-.44-.85-.22-.21-.57-.32-1.03-.32-.44,0-.77,.11-.99,.32s-.37,.5-.44,.85c-.07,.35-.11,.73-.11,1.14v8.43c0,.41,.03,.8,.1,1.16,.07,.36,.21,.65,.43,.86,.22,.21,.56,.32,1.01,.32Z"/><path class="cls-1" d="M159.28,35.32c-1.35,0-2.4-.23-3.15-.69s-1.27-1.13-1.57-2c-.3-.87-.45-1.93-.45-3.18v-12.19h3.59v12.69c0,.44,.03,.87,.1,1.3,.07,.43,.21,.77,.44,1.03,.23,.26,.58,.4,1.04,.4s.84-.13,1.07-.4,.37-.61,.43-1.03c.06-.42,.09-.86,.09-1.3v-12.69h3.59v12.19c0,1.25-.15,2.31-.45,3.18-.3,.87-.83,1.54-1.57,2s-1.8,.69-3.15,.69Z"/><path class="cls-1" d="M167.02,35.08V17.26h3.61v17.82h-3.61Z"/><path class="cls-1" d="M177.98,35.32c-1.1,0-2.02-.2-2.75-.61s-1.29-1.01-1.66-1.83c-.37-.81-.59-1.85-.65-3.11l3.12-.53c.03,.73,.11,1.35,.23,1.84,.12,.49,.32,.86,.57,1.1,.26,.24,.58,.36,.96,.36,.47,0,.79-.15,.96-.44,.17-.29,.25-.63,.25-1.01,0-.75-.18-1.38-.54-1.88s-.83-1.02-1.42-1.53l-1.85-1.61c-.66-.56-1.2-1.19-1.62-1.89s-.63-1.57-.63-2.6c0-1.47,.43-2.59,1.29-3.38,.86-.78,2.03-1.18,3.53-1.18,.89,0,1.63,.15,2.2,.44,.57,.29,1.02,.69,1.33,1.18s.54,1.03,.66,1.61c.12,.58,.2,1.16,.23,1.73l-3.1,.46c-.03-.54-.08-1.02-.14-1.43-.07-.41-.2-.73-.4-.97-.2-.23-.5-.35-.89-.35-.43,0-.74,.16-.95,.47-.21,.32-.31,.66-.31,1.04,0,.63,.14,1.15,.43,1.55s.68,.82,1.18,1.26l1.8,1.58c.75,.65,1.39,1.38,1.93,2.21,.54,.83,.8,1.85,.8,3.07,0,.84-.19,1.59-.57,2.27s-.91,1.2-1.59,1.58-1.49,.57-2.41,.57Z"/></svg>